<svg width="58" height="57" viewBox="0 0 58 57" fill="none" xmlns="http://www.w3.org/2000/svg">
<g clip-path="url(#clip0_2_13)">
<path d="M30.1651 17.7338V11.2851M30.1651 8.06082V11.2851M30.1651 11.2851H23.6816C23.3042 11.2851 22.9336 11.1837 22.6083 10.9915L18.1466 8.35446C17.8213 8.16219 17.4508 8.06082 17.0734 8.06082H16.5614C16.0236 8.06082 15.506 8.26649 15.1137 8.63605L5.45539 17.7338" stroke="white"/>
<path d="M33.0532 19.346L35.2996 17.0889M47.8149 11.93H44.1244M44.1244 11.93H41.3109C40.7494 11.93 40.211 12.1541 39.814 12.5529L35.2996 17.0889M44.1244 11.93L39.7742 16.442C39.3755 16.8555 38.8269 17.0889 38.2539 17.0889H35.2996M5.13448 21.9254L15.5838 12.8846C16.1699 12.3775 17.0656 12.5006 17.4947 13.1472C17.7829 13.5816 17.7829 14.1476 17.4947 14.582L16.6871 15.7992L15.6824 17.5658C15.4996 17.8872 15.4034 18.2509 15.4034 18.6211V20.6357V22.8056C15.4034 23.0762 15.4548 23.3442 15.5548 23.5955L15.9743 24.649C16.0215 24.7676 16.0808 24.8809 16.1513 24.9871C16.4867 25.4926 16.5529 26.1316 16.3284 26.6957L16.1966 27.0265C16.0966 27.2777 16.0453 27.5458 16.0453 27.8164V28.9569C16.0453 29.2109 16.0935 29.4625 16.1874 29.6984L16.2103 29.756C16.4982 30.4793 17.1954 30.9536 17.9707 30.9536C18.6186 30.9536 19.0905 31.5707 18.9236 32.1997L18.1577 35.0853C18.0633 35.441 18.3302 35.7901 18.6966 35.7901C19.0046 35.7901 19.2543 36.0409 19.2543 36.3504V37.6485C19.2543 38.0904 19.0058 38.4943 18.6125 38.6919C18.2192 38.8895 17.9707 39.2935 17.9707 39.7353V41.0917C17.9707 41.422 17.8942 41.7476 17.7472 42.0429L15.5405 46.4776C15.4504 46.6583 15.4034 46.8583 15.4034 47.0607V47.5078C15.4034 47.9812 15.7854 48.3649 16.2565 48.3649C17.0542 48.3649 17.4154 49.3671 16.8025 49.8805L16.6871 49.9771L15.9679 50.519C15.6015 50.7951 15.1559 50.9444 14.6978 50.9444H13.072C12.3284 50.9444 11.6394 50.5522 11.2569 49.9116L11.2124 49.8376C11.015 49.5066 10.9108 49.1285 10.9108 48.7431V45.834C10.9108 44.8582 10.2497 44.0074 9.30739 43.7705L8.80533 43.6446C8.50128 43.568 8.1841 43.5603 7.87678 43.622L6.83612 43.8313C5.8467 44.0304 5.13448 44.9032 5.13448 45.9169V49.5913C5.13448 49.8465 5.18012 50.0996 5.26928 50.3382L5.90605 52.0444C6.03145 52.3805 6.23936 52.6791 6.51048 52.9126L7.74901 53.979C8.13266 54.3095 8.6213 54.4912 9.12657 54.4912H10.5673C10.7948 54.4912 11.0208 54.4541 11.2366 54.3818L13.5864 53.5949C13.7272 53.5477 13.8746 53.5239 14.0229 53.5239H14.3249C14.5978 53.5239 14.8525 53.6608 15.0039 53.8888C15.2322 54.233 15.6796 54.3525 16.0478 54.1674L17.0299 53.674C17.2279 53.5745 17.4087 53.4435 17.5652 53.2865L19.1304 51.7139C19.2129 51.6309 19.302 51.5552 19.3968 51.4867L21.2032 50.1906C21.4001 50.0494 21.6195 49.9431 21.8521 49.8763L22.311 49.7444C23.172 49.4973 24.0946 49.821 24.615 50.5535L25.1981 51.3736C25.2998 51.5165 25.4227 51.6429 25.5627 51.7483L26.3134 52.3141C26.5022 52.4566 26.5697 52.7101 26.4767 52.9279L26.3392 53.2503C26.1654 53.6578 26.6496 54.0279 26.9943 53.751C27.1571 53.62 27.3905 53.6276 27.5447 53.7684L28.5959 54.7285C29.3334 55.4023 30.5015 54.754 30.35 53.7642C30.2533 53.1325 30.7384 52.5566 31.3741 52.5566H31.8598C32.1645 52.5566 32.4114 52.8046 32.4114 53.1108C32.4114 53.6957 33.1961 53.8816 33.4563 53.3588L34.6577 50.9444C35.0244 50.3918 35.7432 50.2 36.3345 50.4969L36.8187 50.7402C37.0859 50.8746 37.3805 50.9444 37.6792 50.9444H38.1331C38.7761 50.9444 39.3843 51.2379 39.786 51.7428L40.294 52.3805C40.3871 52.4974 40.4677 52.6242 40.5343 52.7582L40.9735 53.6404C41.2428 54.1819 41.7288 54.5822 42.3099 54.7413L44.1405 55.2432C44.61 55.3717 45.1088 55.1841 45.3789 54.7774C45.5025 54.5907 45.5685 54.3716 45.5685 54.1475V51.887C45.5685 51.6896 45.541 51.4927 45.4872 51.303L44.9267 49.3322L44.4051 47.655C44.2388 47.1203 44.4432 46.5392 44.9072 46.2283C45.3111 45.9577 45.834 45.9454 46.2501 46.1964L46.8784 46.5754C47.0736 46.6928 47.2861 46.7779 47.5083 46.8276L49.5328 47.2798C49.877 47.3564 50.2365 47.327 50.5637 47.1956L50.62 47.173C51.2517 46.9191 51.6657 46.3049 51.6657 45.6213C51.6657 45.1138 51.4358 44.6336 51.0417 44.3162L50.0612 43.5284L48.4567 42.5611L46.585 41.7552C46.3373 41.6486 46.1125 41.4955 45.922 41.3042L44.9267 40.3041L43.3222 38.3695L42.3709 37.4137C42.1581 37.1999 41.8695 37.0798 41.5686 37.0798H41.4392C40.8841 37.0798 40.434 36.6276 40.434 36.0698C40.434 35.8867 40.4836 35.7071 40.5773 35.5501L41.0951 34.683C41.2925 34.3525 41.3968 33.9743 41.3968 33.5888V25.3266C41.3968 25.0069 41.2704 24.7003 41.0454 24.4743C40.6803 24.1075 40.5898 23.547 40.8207 23.083L41.1057 22.5104C41.2952 22.1295 41.3647 21.6996 41.3047 21.278L41.221 20.6895C41.1315 20.0598 41.3907 19.4312 41.8971 19.0495C42.1972 18.8234 42.5623 18.7011 42.9374 18.7011H43.1435C43.4721 18.7011 43.7959 18.778 44.0902 18.9256L44.9267 19.346L47.361 20.9765C47.6586 21.176 47.9012 21.448 48.0659 21.7672L52.3075 29.9863" stroke="white"/>
<path d="M2.56724 21.9254C2.56724 21.7012 2.08213 19.511 1.74454 18.0246C1.65356 17.624 1.6789 17.2059 1.81865 16.8197L2.75731 14.2261C2.84383 13.987 2.97233 13.7655 3.1367 13.572L13.229 1.69342C13.7709 1.05552 14.6354 0.797211 15.4362 1.03387L18.9804 2.08125C19.3688 2.19602 19.7818 2.19648 20.1704 2.08259L26.1175 0.339755C26.8361 0.129176 27.6119 0.315547 28.158 0.829917L32.1999 4.63724C32.3402 4.76944 32.4979 4.88183 32.6685 4.97124L39.2605 8.42693C39.6082 8.60916 39.9993 8.69083 40.3905 8.66276L47.1557 8.17719C48.1121 8.10858 48.9952 8.69449 49.3076 9.60534L51.9866 17.4114L54.0094 21.4764C54.1563 21.7716 54.233 22.0973 54.233 22.4275V28.6965" stroke="white"/>
<path d="M31.7696 34.5003L27.107 30.3087M25.6724 29.019L27.107 30.3087M27.107 30.3087L27.0025 30.3801C26.7727 30.5371 26.6351 30.7982 26.6351 31.0775C26.6351 31.5433 26.2594 31.9208 25.7958 31.9208H25.5307C25.412 31.9208 25.2941 31.9401 25.1815 31.9778L23.7645 32.4523C23.5405 32.5274 23.3305 32.6396 23.1433 32.7843L22.1425 33.5578M19.2543 35.79L22.1425 33.5578M22.1425 33.5578H26.9782C27.2579 33.5578 27.5348 33.6135 27.793 33.7217L28.1911 33.8886C28.6297 34.0724 28.9677 34.4379 29.118 34.8908C29.1739 35.0593 29.2024 35.2357 29.2024 35.4132V38.1899C29.2024 38.52 29.1259 38.8457 28.9789 39.141L28.7493 39.6024C28.6256 39.8509 28.4395 40.0627 28.2094 40.2169C27.8214 40.4768 27.3395 40.5523 26.8911 40.4237L25.3515 39.9817L22.7843 39.3368L20.217 39.0144L18.9334 38.6919" stroke="white"/>
<path d="M34.3369 24.1825V27.0844C34.3369 27.2624 34.4805 27.4068 34.6578 27.4068C34.835 27.4068 34.9787 27.5512 34.9787 27.7292V27.9285C34.9787 28.0095 34.9974 28.0894 35.0335 28.1618L35.2804 28.6581C35.4907 29.0806 35.4595 29.584 35.1987 29.9771C35.0552 30.1933 34.9787 30.4474 34.9787 30.7073V32.1097C34.9787 32.4017 34.8632 32.6817 34.6578 32.8882L34.4177 33.1293C34.3659 33.1814 34.3369 33.2519 34.3369 33.3255C34.3369 33.6181 33.9442 33.7112 33.8139 33.4495L33.7289 33.2787C33.7066 33.2339 33.695 33.1845 33.695 33.1345V32.5657" stroke="white"/>
<path d="M17.6498 42.5611L18.3766 42.0743C18.5332 41.9694 18.7029 41.886 18.8814 41.8262L19.2493 41.703C19.4652 41.6307 19.6912 41.5938 19.9187 41.5938H20.5983C20.7713 41.5938 20.9437 41.6152 21.1116 41.6573L21.7867 41.8269C22.0221 41.8861 22.2456 41.9854 22.4475 42.1206L23.1052 42.5611L23.747 42.8836" stroke="white"/>
<path d="M36.9041 30.3087V34.1552C36.9041 34.3838 36.9407 34.6109 37.0127 34.8278L37.0687 34.9965C37.1715 35.3063 37.3446 35.5878 37.5745 35.8188L37.8779 36.1237C38.0763 36.323 38.3453 36.4349 38.6258 36.4349C38.7604 36.4349 38.8937 36.4091 39.0186 36.3589L40.434 35.79" stroke="white"/>
<path d="M18.2916 48.3649L23.747 47.3976L29.2689 46.1649C29.4378 46.127 29.6015 46.0688 29.7563 45.9909L34.2108 43.753C34.5047 43.6054 34.7604 43.391 34.9576 43.1269L37.1225 40.2264C37.3973 39.8583 37.5459 39.4105 37.5459 38.9503V35.79" stroke="white"/>
<path d="M21.8215 24.5049L21.7982 24.7163L21.8098 24.7176H21.8215V24.5049ZM23.4261 24.5049V24.7176H23.4392L23.4523 24.7159L23.4261 24.5049ZM27.2769 23.5376L27.1823 23.3474L27.2769 23.5376ZM31.1278 21.603L31.2064 21.4055L31.1905 21.3991L31.1737 21.3954L31.1278 21.603ZM15.7243 21.2806L15.6297 21.4708L15.7243 21.2806ZM35.9414 24.1825L35.8239 24.3594L35.9414 24.1825ZM21.8215 26.1171L21.7702 25.9107L21.8215 26.1171ZM30.616 25.1905L30.7853 25.3181L30.616 25.1905ZM38.6221 24.443L38.7874 24.5759L38.6221 24.443ZM39.1378 24.0586L39.2165 24.256L39.1378 24.0586ZM38.1765 25.0027L38.0112 24.8698L38.1765 25.0027ZM36.7813 24.7451L36.8987 24.5681L36.7813 24.7451ZM35.2837 23.7419L35.1663 23.9189L35.2837 23.7419ZM31.5747 24.2803L31.4801 24.0901L31.5747 24.2803ZM30.828 24.9066L30.6586 24.779L30.828 24.9066ZM19.3697 26.3982L19.4112 26.1896L19.3697 26.3982ZM20.7907 26.376L20.7394 26.1696L20.7907 26.376ZM25.5783 20.3639L25.5324 20.5716L25.5783 20.3639ZM32.3289 22.0857L32.2503 22.2832L32.3289 22.0857ZM33.0396 22.5566L32.8899 22.7069L33.0396 22.5566ZM25.5401 25.3393L25.3905 25.4897L25.5401 25.3393ZM18.3863 23.3578L18.2101 23.4758L18.3863 23.3578ZM19.9138 24.2919L19.8904 24.5033L19.9138 24.2919ZM18.2487 26.1729L18.2071 26.3815L18.2487 26.1729ZM17.7171 25.9897L17.8118 25.7994L17.7171 25.9897ZM16.0589 21.1125L15.9643 20.9222L16.0589 21.1125ZM27.3923 26.0758L27.3508 26.2843L27.3923 26.0758ZM17.9616 22.7178L18.1377 22.5999L17.9616 22.7178ZM17.7855 22.8358L18.2101 23.4758L18.5624 23.2398L18.1377 22.5999L17.7855 22.8358ZM19.8904 24.5033L21.7982 24.7163L21.8449 24.2935L19.9371 24.0805L19.8904 24.5033ZM23.4523 24.7159L26.0196 24.3935L25.9671 23.9714L23.3998 24.2939L23.4523 24.7159ZM26.088 24.3727L27.3716 23.7278L27.1823 23.3474L25.8987 23.9922L26.088 24.3727ZM27.3716 23.7278L31.2225 21.7932L31.0331 21.4128L27.1823 23.3474L27.3716 23.7278ZM31.1737 21.3954L28.2856 20.7505L28.1937 21.1658L31.0819 21.8106L31.1737 21.3954ZM28.2856 20.7505L25.6242 20.1563L25.5324 20.5716L28.1937 21.1658L28.2856 20.7505ZM25.1191 20.1006H21.0093V20.526H25.1191V20.1006ZM20.68 20.1241L16.6763 20.6988L16.7361 21.1199L20.7398 20.5452L20.68 20.1241ZM14.9879 21.1484L15.6297 21.4708L15.819 21.0903L15.1772 20.7679L14.9879 21.1484ZM15.6297 21.4708L17.0523 22.1855L17.2417 21.8051L15.819 21.0903L15.6297 21.4708ZM15.9643 20.9222L15.6297 21.0903L15.819 21.4708L16.1536 21.3027L15.9643 20.9222ZM31.0492 21.8005L32.2503 22.2832L32.4075 21.8883L31.2064 21.4055L31.0492 21.8005ZM32.8899 22.7069L33.5453 23.3656L33.8447 23.0648L33.1892 22.4061L32.8899 22.7069ZM33.6437 23.4215L34.5716 23.6546L34.6743 23.2419L33.7464 23.0088L33.6437 23.4215ZM35.1663 23.9189L35.8239 24.3594L36.0588 24.0055L35.4012 23.565L35.1663 23.9189ZM35.8239 24.3594L36.6638 24.922L36.8987 24.5681L36.0588 24.0055L35.8239 24.3594ZM38.3418 25.1355L38.7874 24.5759L38.4568 24.3102L38.0112 24.8698L38.3418 25.1355ZM39.2165 24.256L40.5127 23.7351L40.3554 23.3401L39.0592 23.8611L39.2165 24.256ZM33.6004 23.0249L31.4801 24.0901L31.6694 24.4706L33.7897 23.4054L33.6004 23.0249ZM30.6586 24.779L30.4467 25.0629L30.7853 25.3181L30.9973 25.0342L30.6586 24.779ZM29.3846 25.7714L29.0829 25.8472L29.1856 26.2599L29.4873 26.1841L29.3846 25.7714ZM28.6209 25.9044H27.8074V26.3297H28.6209V25.9044ZM27.4338 25.8672L26.6633 25.7124L26.5803 26.1295L27.3508 26.2843L27.4338 25.8672ZM25.6898 25.1889L25.5012 24.9994L25.2018 25.3002L25.3905 25.4897L25.6898 25.1889ZM25.5276 25.2677L26.1694 24.3004L25.8172 24.0645L25.1754 25.0318L25.5276 25.2677ZM25.2568 24.9595L24.8373 25.1703L25.0266 25.5508L25.4462 25.34L25.2568 24.9595ZM21.8215 24.7176H22.6238V24.2922H21.8215V24.7176ZM22.6238 24.7176H23.4261V24.2922H22.6238V24.7176ZM23.4865 24.9908L22.7644 24.3459L22.4832 24.6639L23.2052 25.3087L23.4865 24.9908ZM22.3888 25.7553L21.7702 25.9107L21.8729 26.3234L22.4915 26.168L22.3888 25.7553ZM21.7702 25.9107L20.7394 26.1696L20.8421 26.5823L21.8729 26.3234L21.7702 25.9107ZM20.2774 26.2268H19.7848V26.6522H20.2774V26.2268ZM19.4112 26.1896L18.2902 25.9644L18.2071 26.3815L19.3282 26.6068L19.4112 26.1896ZM17.8118 25.7994L16.7817 25.282L16.5924 25.6624L17.6225 26.1799L17.8118 25.7994ZM23.1476 25.0751C23.0214 25.4134 22.7377 25.6677 22.3888 25.7553L22.4915 26.168C22.9754 26.0465 23.3689 25.6937 23.5441 25.2245L23.1476 25.0751ZM24.8373 25.1703C24.3929 25.3936 23.8579 25.3225 23.4865 24.9908L23.2052 25.3087C23.706 25.756 24.4273 25.8518 25.0266 25.5508L24.8373 25.1703ZM29.0829 25.8472C28.9318 25.8852 28.7766 25.9044 28.6209 25.9044V26.3297C28.8113 26.3297 29.0009 26.3063 29.1856 26.2599L29.0829 25.8472ZM30.4467 25.0629C30.1841 25.4146 29.8091 25.6648 29.3846 25.7714L29.4873 26.1841C30.0061 26.0538 30.4645 25.748 30.7853 25.3181L30.4467 25.0629ZM38.7874 24.5759C38.9005 24.4338 39.0483 24.3236 39.2165 24.256L39.0592 23.8611C38.8232 23.956 38.6156 24.1107 38.4568 24.3102L38.7874 24.5759ZM36.8098 25.0687C37.1664 25.6061 37.9402 25.6399 38.3418 25.1355L38.0112 24.8698C37.7886 25.1493 37.3597 25.1306 37.1621 24.8328L36.8098 25.0687ZM36.6638 24.922C36.7217 24.9608 36.7713 25.0106 36.8098 25.0687L37.1621 24.8328C37.0925 24.7279 37.003 24.638 36.8987 24.5681L36.6638 24.922ZM34.5716 23.6546C34.7834 23.7078 34.9846 23.7972 35.1663 23.9189L35.4012 23.565C35.1791 23.4162 34.9332 23.307 34.6743 23.2419L34.5716 23.6546ZM31.4801 24.0901C31.1568 24.2526 30.8755 24.4884 30.6586 24.779L30.9973 25.0342C31.1748 24.7964 31.4049 24.6035 31.6694 24.4706L31.4801 24.0901ZM19.7848 26.2268C19.6594 26.2268 19.5342 26.2143 19.4112 26.1896L19.3282 26.6068C19.4785 26.637 19.6315 26.6522 19.7848 26.6522V26.2268ZM21.0093 20.1006C20.8991 20.1006 20.7891 20.1085 20.68 20.1241L20.7398 20.5452C20.8291 20.5324 20.9191 20.526 21.0093 20.526V20.1006ZM20.7394 26.1696C20.5883 26.2076 20.4331 26.2268 20.2774 26.2268V26.6522C20.4677 26.6522 20.6574 26.6287 20.8421 26.5823L20.7394 26.1696ZM25.6242 20.1563C25.4584 20.1193 25.289 20.1006 25.1191 20.1006V20.526C25.2582 20.526 25.3967 20.5412 25.5324 20.5716L25.6242 20.1563ZM32.2503 22.2832C32.4898 22.3795 32.7074 22.5236 32.8899 22.7069L33.1892 22.4061C32.9663 22.1821 32.7003 22.0059 32.4075 21.8883L32.2503 22.2832ZM26.6633 25.7124C26.2945 25.6383 25.9558 25.4561 25.6898 25.1889L25.3905 25.4897C25.7155 25.8163 26.1295 26.0389 26.5803 26.1295L26.6633 25.7124ZM18.2101 23.4758C18.5917 24.0509 19.2067 24.427 19.8904 24.5033L19.9371 24.0805C19.3778 24.0181 18.8746 23.7103 18.5624 23.2398L18.2101 23.4758ZM18.2902 25.9644C18.1241 25.931 17.9632 25.8755 17.8118 25.7994L17.6225 26.1799C17.8076 26.2729 18.0042 26.3407 18.2071 26.3815L18.2902 25.9644ZM16.6763 20.6988C16.4285 20.7343 16.1881 20.8098 15.9643 20.9222L16.1536 21.3027C16.3367 21.2107 16.5334 21.149 16.7361 21.1199L16.6763 20.6988ZM27.8074 25.9044C27.682 25.9044 27.5568 25.8919 27.4338 25.8672L27.3508 26.2843C27.5011 26.3145 27.6541 26.3297 27.8074 26.3297V25.9044ZM18.1377 22.5999C17.9129 22.2611 17.6041 21.9871 17.2417 21.8051L17.0523 22.1855C17.3489 22.3345 17.6016 22.5586 17.7855 22.8358L18.1377 22.5999Z" fill="white"/>
<path fill-rule="evenodd" clip-rule="evenodd" d="M19.1706 38.0836C19.225 37.9476 19.2543 37.8003 19.2543 37.6485V36.3504C19.2543 36.3201 19.2519 36.2904 19.2473 36.2614C19.2023 36.3994 19.1711 36.5427 19.1549 36.6894L19.0795 37.3707C19.052 37.6197 19.0861 37.8628 19.1706 38.0836Z" fill="#E5E3BC"/>
<path fill-rule="evenodd" clip-rule="evenodd" d="M23.0644 25.5985L23.3458 25.1498C23.2825 25.3195 23.1859 25.4716 23.0644 25.5985Z" fill="#E5E3BC"/>
<path fill-rule="evenodd" clip-rule="evenodd" d="M15.6039 23.7188L15.5548 23.5955C15.4548 23.3443 15.4034 23.0762 15.4034 22.8056V21.2762C15.2642 21.3422 15.1674 21.4937 15.1954 21.6702L15.4531 23.2957C15.4768 23.445 15.528 23.5885 15.6039 23.7188Z" fill="#E5E3BC"/>
<path d="M22.6083 10.9915L22.7156 10.8082L22.6083 10.9915ZM18.1466 8.35451L18.254 8.17117L18.1466 8.35451ZM15.1137 8.6361L14.9689 8.48093L15.1137 8.6361ZM39.7742 16.442L39.9263 16.5899L39.7742 16.442ZM39.814 12.553L39.6644 12.4026L39.814 12.553ZM15.5838 12.8846L15.4457 12.7234L15.5838 12.8846ZM17.4947 14.582L17.6708 14.7L17.4947 14.582ZM16.6871 15.7992L16.5109 15.6813L16.5069 15.6873L16.5033 15.6937L16.6871 15.7992ZM15.6824 17.5659L15.8661 17.6714L15.6824 17.5659ZM15.5548 23.5955L15.3583 23.6745L15.5548 23.5955ZM15.9743 24.649L15.7777 24.728L15.9743 24.649ZM16.3284 26.6957L16.5249 26.7747L16.3284 26.6957ZM16.1966 27.0265L16.0001 26.9475L16.1966 27.0265ZM16.1874 29.6985L15.9909 29.7774L16.1874 29.6985ZM18.9236 32.1998L18.719 32.1449L18.9236 32.1998ZM18.1577 35.0853L17.9532 35.0305L18.1577 35.0853ZM17.7472 42.043L17.9365 42.1381L17.7472 42.043ZM15.5405 46.4776L15.3512 46.3823L15.5405 46.4776ZM16.8025 49.8805L16.938 50.0439L16.8025 49.8805ZM16.6871 49.9771L16.8141 50.1472L16.8184 50.1438L16.8226 50.1404L16.6871 49.9771ZM15.9679 50.519L16.0949 50.6892L15.9679 50.519ZM11.2569 49.912L11.4384 49.8023L11.2569 49.912ZM11.2124 49.8376L11.0309 49.9469L11.2124 49.8376ZM9.30739 43.7705L9.3587 43.5642L9.30739 43.7705ZM8.80533 43.6446L8.85664 43.4383L8.80533 43.6446ZM7.87678 43.6224L7.91831 43.8309L7.87678 43.6224ZM6.83613 43.8313L6.87766 44.0397L6.83613 43.8313ZM5.26924 50.3382L5.07106 50.4131L5.26924 50.3382ZM5.90605 52.0444L6.10427 51.97L5.90605 52.0444ZM6.51048 52.9126L6.64824 52.751L6.51048 52.9126ZM7.74901 53.979L7.61125 54.1406L7.74901 53.979ZM11.2366 54.3818L11.1697 54.1802L11.2366 54.3818ZM13.5864 53.5949L13.6534 53.7969L13.5864 53.5949ZM16.0477 54.1674L16.1424 54.3576L16.0477 54.1674ZM17.0299 53.674L16.9352 53.4839L17.0299 53.674ZM17.5652 53.2865L17.7149 53.4367L17.5652 53.2865ZM19.1304 51.7139L19.2801 51.8641L19.1304 51.7139ZM19.3969 51.4872L19.2738 51.314L19.3969 51.4872ZM21.2032 50.1906L21.3263 50.3638L21.2032 50.1906ZM21.8521 49.8763L21.7939 49.6717L21.8521 49.8763ZM22.311 49.7444L22.2528 49.5398L22.311 49.7444ZM24.615 50.5535L24.4428 50.6768L24.615 50.5535ZM25.1981 51.3736L25.0258 51.497L25.1981 51.3736ZM25.5627 51.7484L25.6897 51.5782L25.5627 51.7484ZM26.3134 52.3141L26.1864 52.4842L26.3134 52.3141ZM26.4767 52.9279L26.2821 52.8441L26.4767 52.9279ZM26.3392 53.2503L26.5338 53.3341L26.3392 53.2503ZM27.5448 53.7684L27.4024 53.9258L27.5448 53.7684ZM28.5959 54.7285L28.7382 54.5711L28.5959 54.7285ZM34.6578 50.9444L34.4816 50.8266L34.4743 50.8376L34.4684 50.8491L34.6578 50.9444ZM36.8187 50.7402L36.9134 50.5501L36.8187 50.7402ZM39.786 51.7428L39.6207 51.8755L39.786 51.7428ZM40.294 52.3805L40.1287 52.5136L40.294 52.3805ZM40.5343 52.7582L40.345 52.853L40.5343 52.7582ZM40.9735 53.6408L41.1628 53.5456L40.9735 53.6408ZM42.3099 54.7413L42.2541 54.9467L42.3099 54.7413ZM44.1405 55.2432L44.1964 55.0378L44.1405 55.2432ZM45.4872 51.303L45.2836 51.3613L45.4872 51.303ZM44.9267 49.3322L45.1304 49.274L45.1287 49.2688L44.9267 49.3322ZM44.4051 47.655L44.6071 47.5916L44.4051 47.655ZM46.2501 46.1964L46.1413 46.3789L46.2501 46.1964ZM46.8784 46.5754L46.7696 46.7574L46.8784 46.5754ZM47.5084 46.8276L47.5545 46.6201L47.5084 46.8276ZM49.5328 47.2798L49.5786 47.0722L49.5328 47.2798ZM50.5637 47.1956L50.4854 46.9982L50.5637 47.1956ZM50.62 47.173L50.6988 47.3704L50.62 47.173ZM51.0417 44.3162L50.9092 44.4826L51.0417 44.3162ZM50.0612 43.5284L50.1933 43.3625L50.1823 43.3536L50.17 43.346L50.0612 43.5284ZM48.4567 42.5611L48.5655 42.3788L48.5532 42.3713L48.5401 42.3657L48.4567 42.5611ZM46.585 41.7552L46.5016 41.9507L46.585 41.7552ZM45.922 41.3042L45.7726 41.4546L45.922 41.3042ZM44.9267 40.3041L44.7641 40.4403L44.7701 40.4477L44.7768 40.4545L44.9267 40.3041ZM43.3222 38.3695L43.4848 38.2334L43.4788 38.226L43.4721 38.2191L43.3222 38.3695ZM42.3709 37.4137L42.2212 37.5641L42.3709 37.4137ZM40.5773 35.5502L40.3958 35.4408L40.5773 35.5502ZM41.0951 34.6831L40.9136 34.5737L41.0951 34.6831ZM40.8207 23.0831L41.01 23.1782L40.8207 23.0831ZM41.1057 22.5104L40.9163 22.4153L41.1057 22.5104ZM41.3047 21.2781L41.5142 21.248L41.3047 21.2781ZM41.221 20.6896L41.0115 20.7196L41.221 20.6896ZM44.0902 18.9257L44.1846 18.7354L44.0902 18.9257ZM44.9267 19.346L45.044 19.169L45.033 19.1617L45.0216 19.1558L44.9267 19.346ZM47.361 20.9766L47.2438 21.1535L47.361 20.9766ZM48.0659 21.7672L47.8779 21.8651L48.0659 21.7672ZM41.8971 19.0495L41.7701 18.8794L41.8971 19.0495ZM41.0454 24.4743L41.1951 24.3239L41.0454 24.4743ZM44.9072 46.2283L45.0245 46.4052L44.9072 46.2283ZM45.3789 54.7774L45.555 54.8953L45.3789 54.7774ZM30.35 53.7642L30.5592 53.7319L30.35 53.7642ZM26.9943 53.751L26.862 53.5851L26.9943 53.751ZM15.0039 53.8888L14.8278 54.0071L15.0039 53.8888ZM18.6125 38.6919L18.7072 38.8822L18.6125 38.6919ZM16.1513 24.9872L16.3274 24.8692L16.1513 24.9872ZM17.4947 13.1472L17.6708 13.0293L17.4947 13.1472ZM1.74454 18.0246L1.53817 18.0719L1.74454 18.0246ZM1.81865 16.8197L1.61972 16.7471L1.81865 16.8197ZM2.75731 14.2261L2.55838 14.1534L2.75731 14.2261ZM3.1367 13.5721L3.2977 13.7102L3.1367 13.5721ZM13.229 1.69346L13.39 1.83155L13.229 1.69346ZM15.4362 1.03391L15.3765 1.23795L15.4362 1.03391ZM18.9804 2.08129L18.9207 2.28533L18.9804 2.08129ZM20.1704 2.08264L20.2297 2.28682L20.1704 2.08264ZM26.1175 0.3398L26.1768 0.54398L26.1175 0.3398ZM28.158 0.829962L28.0132 0.985126L28.158 0.829962ZM32.1999 4.63726L32.3447 4.48212L32.1999 4.63726ZM32.6685 4.9713L32.7664 4.78273L32.6685 4.9713ZM39.2605 8.42699L39.3584 8.23842L39.2605 8.42699ZM40.3905 8.66278L40.3754 8.45064L40.3905 8.66278ZM47.1557 8.17725L47.1709 8.38939L47.1557 8.17725ZM49.3076 9.60536L49.1074 9.67469L49.3076 9.60536ZM51.9866 17.4114L51.7864 17.4808L51.791 17.494L51.7974 17.5065L51.9866 17.4114ZM54.0094 21.4764L54.1987 21.3813L54.0094 21.4764ZM27.107 30.3087L27.2482 30.1502L27.107 30.3087ZM22.1425 33.5579L22.0134 33.3893L22.1425 33.5579ZM25.3515 39.9817L25.4097 39.7772L25.4062 39.7762L25.4029 39.7754L25.3515 39.9817ZM22.7843 39.3369L22.8356 39.1305L22.8232 39.1274L22.8105 39.1258L22.7843 39.3369ZM20.217 39.0144L20.1657 39.2208L20.1781 39.2239L20.1908 39.2255L20.217 39.0144ZM19.0795 37.3707L19.2899 37.3942L19.0795 37.3707ZM28.7493 39.6024L28.9387 39.6975L28.7493 39.6024ZM28.2094 40.217L28.3268 40.3939L28.2094 40.217ZM28.9789 39.1411L28.7896 39.0459L28.9789 39.1411ZM29.118 34.8909L28.9172 34.9581L29.118 34.8909ZM28.1911 33.8886L28.1096 34.0849L28.1911 33.8886ZM27.7931 33.7218L27.8745 33.5255L27.7931 33.7218ZM19.9681 35.2384L20.0971 35.407L19.9681 35.2384ZM19.1549 36.6894L18.9445 36.6659L19.1549 36.6894ZM23.7645 32.4524L23.8315 32.6542L23.7645 32.4524ZM23.1433 32.7843L23.2724 32.9529L23.1433 32.7843ZM25.1815 31.9779L25.1145 31.7761L25.1815 31.9779ZM26.8911 40.4237L26.833 40.6282L26.8911 40.4237ZM27.0025 30.3802L26.8835 30.2043L27.0025 30.3802ZM35.0335 28.1619L34.8442 28.257L35.0335 28.1619ZM35.2804 28.6581L35.4698 28.563L35.2804 28.6581ZM34.6578 32.8882L34.5081 32.7378L34.6578 32.8882ZM33.8139 33.4495L33.6246 33.5447L33.8139 33.4495ZM33.7289 33.2787L33.9182 33.1836L33.7289 33.2787ZM35.1987 29.9771L35.3748 30.0951L35.1987 29.9771ZM18.3766 42.0743L18.494 42.2513L18.3766 42.0743ZM18.8814 41.8263L18.9483 42.028L18.8814 41.8263ZM19.2493 41.703L19.1824 41.5012L19.2493 41.703ZM21.1116 41.6574L21.0603 41.8637L21.1116 41.6574ZM21.7867 41.827L21.8381 41.6206L21.7867 41.827ZM22.4475 42.1207L22.3301 42.2976L22.4475 42.1207ZM23.1052 42.5611L22.9877 42.7381L22.9987 42.7453L23.0105 42.7513L23.1052 42.5611ZM37.0127 34.8278L36.8119 34.8951L37.0127 34.8278ZM37.0687 34.9966L36.8679 35.0638L37.0687 34.9966ZM37.5745 35.8189L37.7242 35.6684L37.5745 35.8189ZM37.8779 36.1237L37.7282 36.2741L37.8779 36.1237ZM39.0186 36.3589L38.94 36.1615L39.0186 36.3589ZM23.747 47.3976L23.7838 47.6073L23.7883 47.6065L23.7929 47.6052L23.747 47.3976ZM29.2689 46.1649L29.223 45.9573L29.2689 46.1649ZM34.9576 43.1269L34.7882 42.9993L34.9576 43.1269ZM37.1225 40.2265L36.9532 40.0988L37.1225 40.2265ZM37.5459 35.7901L37.6956 35.6397L37.3342 35.2766V35.7901H37.5459ZM18.9334 24.1825L18.8064 24.3527L18.8526 24.3875L18.91 24.3939L18.9334 24.1825ZM21.8215 24.5049L21.7982 24.7163L21.8098 24.7176H21.8215V24.5049ZM23.4261 24.5049V24.7176H23.4392L23.4523 24.716L23.4261 24.5049ZM31.1278 21.6031L31.2064 21.4056L31.1905 21.3992L31.1737 21.3954L31.1278 21.6031ZM15.7243 21.2806L15.6297 21.4708L15.7243 21.2806ZM17.9707 26.1171L17.876 26.3073L17.9014 26.3201L17.9292 26.3257L17.9707 26.1171ZM17.6498 23.2152L17.7768 23.0451L17.7727 23.042L17.7685 23.0391L17.6498 23.2152ZM31.2552 22.3642L31.1129 22.5216L31.2552 22.3642ZM30.9645 22.3026L30.8975 22.1008L30.9645 22.3026ZM16.5672 22.9311L16.7607 22.845L16.5672 22.9311ZM17.2228 25.7414L17.3174 25.5512L17.2228 25.7414ZM16.3711 24.961L16.551 24.8488L16.3711 24.961ZM22.4402 25.9617L22.3888 25.7554L22.4402 25.9617ZM24.932 25.3606L24.8373 25.1704L24.932 25.3606ZM26.6218 25.921L26.5803 26.1295L26.6218 25.921ZM38.6221 24.4431L38.7874 24.5759L38.6221 24.4431ZM39.1378 24.0586L39.2165 24.2561L39.1378 24.0586ZM36.986 24.9508L36.8099 25.0688L36.986 24.9508ZM38.1765 25.0027L38.0112 24.8698L38.1765 25.0027ZM31.3496 22.6177L31.1394 22.5927L31.3496 22.6177ZM36.7813 24.7451L36.6638 24.9221L36.7813 24.7451ZM16.865 22.681L16.9838 22.505L16.865 22.681ZM34.623 23.4483L34.5716 23.6546L34.623 23.4483ZM35.2837 23.742L35.1663 23.919L35.2837 23.742ZM15.6202 23.7458L15.4403 23.858L15.6202 23.7458ZM15.4531 23.2957L15.6622 23.2622L15.4531 23.2957ZM32.3289 22.0858L32.2503 22.2833L32.3289 22.0858ZM33.0396 22.5566L33.1892 22.4062L33.0396 22.5566ZM20.7907 26.376L20.8421 26.5824L20.7907 26.376ZM25.5783 20.364L25.5324 20.5716L25.5783 20.364ZM30.616 25.1906L30.4467 25.063L30.616 25.1906ZM29.436 25.9778L29.4873 26.1841L29.436 25.9778ZM29.1342 26.0536L29.0829 25.8473L29.1342 26.0536ZM15.1954 21.6702L14.9864 21.7037L15.1954 21.6702ZM16.7062 20.9094L16.6763 20.6988L16.7062 20.9094ZM16.0589 21.1125L15.9643 20.9223L16.0589 21.1125ZM27.3923 26.0758L27.4338 25.8672L27.3923 26.0758ZM17.9616 22.7179L17.7855 22.8359L17.9616 22.7179ZM19.3697 26.3982L19.3281 26.6068L19.3697 26.3982ZM20.7099 20.3347L20.7398 20.5452L20.7099 20.3347ZM3.42581 21.403L3.46061 21.1932L3.38937 21.1813L3.32573 21.2156L3.42581 21.403ZM53.382 29.0598L53.2762 28.8755L53.252 28.8895L53.2321 28.9094L53.382 29.0598ZM24.932 25.921L24.7462 25.819L24.7071 25.8909L24.7261 25.9706L24.932 25.921ZM15.6121 23.7326L15.4308 23.8425L15.4309 23.8425L15.6121 23.7326ZM39.9498 23.7323L39.8712 23.5348L39.9498 23.7323ZM40.7729 23.1393L40.6119 23.0011L40.7729 23.1393ZM18.4741 48.3326L18.4374 48.1233L18.4741 48.3326ZM18.1062 48.3649V48.1522V48.3649ZM5.54069 21.574L5.40259 21.4128L5.54069 21.574ZM26.1649 29.4617L26.0238 29.6203L26.1649 29.4617ZM25.5181 28.3734L25.3123 28.423L25.5181 28.3734ZM40.1756 35.894L40.2542 36.0915L40.1756 35.894ZM52.0658 29.5181L52.2538 29.4202L52.0658 29.5181ZM30.3768 17.7338V11.2852H29.9534V17.7338H30.3768ZM30.3768 11.2852V8.06083H29.9534V11.2852H30.3768ZM30.1651 11.0725H23.6816V11.4978H30.1651V11.0725ZM22.7156 10.8082L18.254 8.17117L18.0393 8.5378L22.501 11.1749L22.7156 10.8082ZM17.0734 7.84814H16.5614V8.27352H17.0734V7.84814ZM14.9689 8.48093L5.3106 17.5787L5.60017 17.889L15.2584 8.79124L14.9689 8.48093ZM16.5614 7.84814C15.9699 7.84814 15.4005 8.0744 14.9689 8.48093L15.2584 8.79124C15.6116 8.45864 16.0774 8.27352 16.5614 8.27352V7.84814ZM18.254 8.17117C17.8961 7.95968 17.4885 7.84814 17.0734 7.84814V8.27352C17.413 8.27352 17.7465 8.36476 18.0393 8.5378L18.254 8.17117ZM23.6816 11.0725C23.3419 11.0725 23.0084 10.9812 22.7156 10.8082L22.501 11.1749C22.8588 11.3864 23.2664 11.4978 23.6816 11.4978V11.0725ZM41.3109 12.1427H44.1245V11.7173H41.3109V12.1427ZM44.1245 12.1427H47.8149V11.7173H44.1245V12.1427ZM43.9725 11.782L39.6222 16.294L39.9263 16.5899L44.2764 12.078L43.9725 11.782ZM33.2029 19.4964L35.4492 17.2394L35.1499 16.9386L32.9035 19.1956L33.2029 19.4964ZM35.4492 17.2394L39.9637 12.7034L39.6644 12.4026L35.1499 16.9386L35.4492 17.2394ZM38.2539 16.8763H35.2996V17.3016H38.2539V16.8763ZM5.67883 21.7352L15.7219 13.0458L15.4457 12.7234L5.40259 21.4128L5.67883 21.7352ZM17.3185 14.4641L16.5109 15.6813L16.8632 15.9172L17.6708 14.7L17.3185 14.4641ZM16.5033 15.6937L15.4986 17.4603L15.8661 17.6714L16.8708 15.9048L16.5033 15.6937ZM16.1318 26.6167L16.0001 26.9475L16.3932 27.1055L16.5249 26.7747L16.1318 26.6167ZM15.8336 27.8164V28.9569H16.2569V27.8164H15.8336ZM15.9909 29.7774L16.0138 29.8351L16.4069 29.6771L16.3839 29.6195L15.9909 29.7774ZM18.719 32.1449L17.9532 35.0305L18.3622 35.1401L19.1281 32.2546L18.719 32.1449ZM19.0426 36.3504V37.6486H19.466V36.3504H19.0426ZM17.759 39.7354V41.0918H18.1824V39.7354H17.759ZM17.5579 41.9478L15.3512 46.3823L15.7298 46.5724L17.9365 42.1381L17.5579 41.9478ZM15.1918 47.0607V47.5078H15.6151V47.0607H15.1918ZM16.667 49.7172L16.5515 49.8138L16.8226 50.1404L16.938 50.0439L16.667 49.7172ZM16.5601 49.8069L15.8409 50.3489L16.0949 50.6892L16.8141 50.1472L16.5601 49.8069ZM14.6978 50.7317H13.072V51.1571H14.6978V50.7317ZM11.4384 49.8023L11.394 49.7278L11.0309 49.9469L11.0753 50.0213L11.4384 49.8023ZM11.1225 48.7431V45.834H10.6991V48.7431H11.1225ZM9.3587 43.5642L8.85664 43.4383L8.75398 43.8509L9.25604 43.9768L9.3587 43.5642ZM7.83525 43.4136L6.79464 43.6229L6.87766 44.0397L7.91831 43.8309L7.83525 43.4136ZM4.9228 45.9169V49.5913H5.34616V45.9169H4.9228ZM5.07106 50.4131L5.70788 52.1193L6.10427 51.97L5.46745 50.2634L5.07106 50.4131ZM6.37272 53.0738L7.61125 54.1406L7.88677 53.8178L6.64824 52.751L6.37272 53.0738ZM9.12657 54.7038H10.5673V54.2785H9.12657V54.7038ZM11.3036 54.5839L13.6534 53.7969L13.5195 53.3933L11.1697 54.1802L11.3036 54.5839ZM14.0229 53.7365H14.3249V53.3112H14.0229V53.7365ZM16.1424 54.3576L17.1246 53.8642L16.9352 53.4839L15.953 53.9773L16.1424 54.3576ZM17.7149 53.4367L19.2801 51.8641L18.9807 51.5633L17.4156 53.1359L17.7149 53.4367ZM19.5199 51.6599L21.3263 50.3638L21.0802 50.0175L19.2738 51.314L19.5199 51.6599ZM21.9102 50.0809L22.3692 49.949L22.2528 49.5398L21.7939 49.6717L21.9102 50.0809ZM24.4428 50.6768L25.0258 51.497L25.3703 51.2498L24.7873 50.4297L24.4428 50.6768ZM25.4357 51.9185L26.1864 52.4842L26.4404 52.1439L25.6897 51.5782L25.4357 51.9185ZM26.2821 52.8441L26.1447 53.1665L26.5338 53.3341L26.6712 53.0117L26.2821 52.8441ZM27.4024 53.9258L28.4534 54.8859L28.7382 54.5711L27.6872 53.6111L27.4024 53.9258ZM31.3741 52.7692H31.8598V52.3439H31.3741V52.7692ZM33.6457 53.4537L34.8471 51.0397L34.4684 50.8491L33.267 53.2635L33.6457 53.4537ZM36.2398 50.687L36.7241 50.9304L36.9134 50.5501L36.4291 50.3068L36.2398 50.687ZM37.6792 51.1571H38.1331V50.7317H37.6792V51.1571ZM39.6207 51.8755L40.1287 52.5136L40.4592 52.2477L39.9512 51.6097L39.6207 51.8755ZM40.345 52.853L40.7842 53.7357L41.1628 53.5456L40.7237 52.6629L40.345 52.853ZM42.2541 54.9467L44.0851 55.4483L44.1964 55.0378L42.3654 54.5362L42.2541 54.9467ZM45.7802 54.1475V51.887H45.3568V54.1475H45.7802ZM45.6905 51.2443L45.1304 49.274L44.7231 49.3905L45.2836 51.3613L45.6905 51.2443ZM45.1287 49.2688L44.6071 47.5916L44.2032 47.7184L44.7248 49.3956L45.1287 49.2688ZM46.1413 46.3789L46.7696 46.7574L46.9872 46.3929L46.3589 46.0139L46.1413 46.3789ZM47.4626 47.0352L49.4867 47.4874L49.5786 47.0722L47.5545 46.6201L47.4626 47.0352ZM50.6425 47.393L50.6988 47.3704L50.5417 46.9757L50.4854 46.9982L50.6425 47.393ZM51.1738 44.1503L50.1933 43.3625L49.9291 43.6943L50.9092 44.4826L51.1738 44.1503ZM50.17 43.346L48.5655 42.3788L48.3479 42.7436L49.9524 43.7109L50.17 43.346ZM48.5401 42.3657L46.6684 41.5597L46.5016 41.9507L48.3733 42.7568L48.5401 42.3657ZM46.0719 41.1538L45.0766 40.1537L44.7768 40.4545L45.7726 41.4546L46.0719 41.1538ZM45.0893 40.1679L43.4848 38.2334L43.1596 38.5057L44.7641 40.4403L45.0893 40.1679ZM43.4721 38.2191L42.5203 37.2633L42.2212 37.5641L43.1723 38.5199L43.4721 38.2191ZM41.5686 36.8671H41.4392V37.2925H41.5686V36.8671ZM40.7588 35.6596L41.2766 34.7925L40.9136 34.5737L40.3958 35.4408L40.7588 35.6596ZM41.6084 33.5888V25.3266H41.1851V33.5888H41.6084ZM41.01 23.1782L41.295 22.6055L40.9163 22.4153L40.6314 22.9879L41.01 23.1782ZM41.5142 21.248L41.4306 20.6594L41.0115 20.7196L41.0952 21.3081L41.5142 21.248ZM42.9374 18.9138H43.1435V18.4884H42.9374V18.9138ZM43.9953 19.1159L44.8319 19.5362L45.0216 19.1558L44.1846 18.7354L43.9953 19.1159ZM44.8094 19.523L47.2438 21.1535L47.4783 20.7996L45.044 19.169L44.8094 19.523ZM47.8779 21.8651L51.8778 29.616L52.2538 29.4202L48.2539 21.6693L47.8779 21.8651ZM47.2438 21.1535C47.5113 21.333 47.7298 21.5778 47.8779 21.8651L48.2539 21.6693C48.0727 21.3182 47.806 21.019 47.4783 20.7996L47.2438 21.1535ZM43.1435 18.9138C43.439 18.9138 43.7307 18.983 43.9953 19.1159L44.1846 18.7354C43.8615 18.573 43.5047 18.4884 43.1435 18.4884V18.9138ZM42.0241 19.2197C42.2876 19.0212 42.608 18.9138 42.9374 18.9138V18.4884C42.5165 18.4884 42.1069 18.6256 41.7701 18.8794L42.0241 19.2197ZM41.4306 20.6594C41.352 20.1066 41.5795 19.5548 42.0241 19.2197L41.7701 18.8794C41.2018 19.3077 40.911 20.0131 41.0115 20.7196L41.4306 20.6594ZM41.295 22.6055C41.5038 22.1859 41.5803 21.7124 41.5142 21.248L41.0952 21.3081C41.149 21.6868 41.0866 22.0731 40.9163 22.4153L41.295 22.6055ZM41.1951 24.3239C40.8944 24.0219 40.8198 23.5603 41.01 23.1782L40.6314 22.9879C40.3597 23.5338 40.4662 24.1931 40.8957 24.6247L41.1951 24.3239ZM41.6084 25.3266C41.6084 24.9505 41.4598 24.5899 41.1951 24.3239L40.8957 24.6247C41.081 24.8109 41.1851 25.0633 41.1851 25.3266H41.6084ZM41.2766 34.7925C41.4937 34.4289 41.6084 34.0128 41.6084 33.5888H41.1851C41.1851 33.9357 41.0912 34.2761 40.9136 34.5737L41.2766 34.7925ZM40.6457 36.0698C40.6457 35.9253 40.6848 35.7835 40.7588 35.6596L40.3958 35.4408C40.2823 35.6308 40.2224 35.8482 40.2224 36.0698H40.6457ZM41.4392 36.8671C41.001 36.8671 40.6457 36.5102 40.6457 36.0698H40.2224C40.2224 36.7451 40.7672 37.2925 41.4392 37.2925V36.8671ZM42.5203 37.2633C42.2681 37.0096 41.9257 36.8671 41.5686 36.8671V37.2925C41.8134 37.2925 42.0481 37.3902 42.2212 37.5641L42.5203 37.2633ZM46.6684 41.5597C46.4457 41.4638 46.2429 41.326 46.0719 41.1538L45.7726 41.4546C45.9817 41.6651 46.2294 41.8335 46.5016 41.9507L46.6684 41.5597ZM51.8774 45.6213C51.8774 45.0491 51.6183 44.5076 51.1738 44.1503L50.9092 44.4826C51.2538 44.7595 51.454 45.1785 51.454 45.6213H51.8774ZM50.6988 47.3704C51.4104 47.0846 51.8774 46.3916 51.8774 45.6213H51.454C51.454 46.2176 51.0925 46.754 50.5417 46.9757L50.6988 47.3704ZM49.4867 47.4874C49.8728 47.5733 50.2754 47.5406 50.6425 47.393L50.4854 46.9982C50.1975 47.1139 49.8813 47.1394 49.5786 47.0722L49.4867 47.4874ZM46.7696 46.7574C46.9842 46.8868 47.2184 46.9808 47.4626 47.0352L47.5545 46.6201C47.3542 46.5754 47.1629 46.4988 46.9872 46.3929L46.7696 46.7574ZM45.0245 46.4052C45.3602 46.1806 45.795 46.17 46.1413 46.3789L46.3589 46.0139C45.8725 45.7208 45.2616 45.7353 44.7895 46.0513L45.0245 46.4052ZM44.6071 47.5916C44.4686 47.1467 44.6388 46.6639 45.0245 46.4052L44.7895 46.0513C44.2476 46.4146 44.0085 47.0935 44.2032 47.7184L44.6071 47.5916ZM45.7802 51.887C45.7802 51.6697 45.7502 51.4536 45.6905 51.2443L45.2836 51.3613C45.3323 51.5323 45.3568 51.7092 45.3568 51.887H45.7802ZM45.555 54.8953C45.7019 54.6736 45.7802 54.4133 45.7802 54.1475H45.3568C45.3568 54.3295 45.3031 54.5077 45.2027 54.6592L45.555 54.8953ZM44.0851 55.4483C44.6422 55.601 45.2345 55.3781 45.555 54.8953L45.2027 54.6592C44.983 54.9901 44.5779 55.1424 44.1964 55.0378L44.0851 55.4483ZM40.7842 53.7357C41.0804 54.3312 41.615 54.7715 42.2541 54.9467L42.3654 54.5362C41.8426 54.3929 41.4052 54.0326 41.1628 53.5456L40.7842 53.7357ZM40.1287 52.5136C40.2125 52.6187 40.285 52.7327 40.345 52.853L40.7237 52.6629C40.6503 52.5157 40.5617 52.3766 40.4592 52.2477L40.1287 52.5136ZM38.1331 51.1571C38.7118 51.1571 39.2591 51.4212 39.6207 51.8755L39.9512 51.6097C39.5094 51.055 38.8404 50.7317 38.1331 50.7317V51.1571ZM36.7241 50.9304C37.0206 51.0797 37.3476 51.1571 37.6792 51.1571V50.7317C37.4133 50.7317 37.1512 50.6696 36.9134 50.5501L36.7241 50.9304ZM32.1997 53.1108C32.1997 53.9199 33.2855 54.1777 33.6457 53.4537L33.267 53.2635C33.1066 53.586 32.6231 53.4711 32.6231 53.1108H32.1997ZM31.8598 52.7692C32.0475 52.7692 32.1997 52.9224 32.1997 53.1108H32.6231C32.6231 52.6871 32.2814 52.3439 31.8598 52.3439V52.7692ZM28.4534 54.8859C29.3446 55.7001 30.7398 54.9114 30.5592 53.7319L30.1407 53.7965C30.2632 54.5962 29.3222 55.1045 28.7382 54.5711L28.4534 54.8859ZM27.1265 53.9173C27.2081 53.8514 27.3251 53.8552 27.4024 53.9258L27.6872 53.6111C27.4559 53.4001 27.1061 53.389 26.862 53.5851L27.1265 53.9173ZM26.1864 52.4842C26.2971 52.5676 26.3367 52.7165 26.2821 52.8441L26.6712 53.0117C26.8027 52.7037 26.7073 52.3451 26.4404 52.1439L26.1864 52.4842ZM25.0258 51.497C25.1401 51.6577 25.2783 51.7998 25.4357 51.9185L25.6897 51.5782C25.5671 51.4859 25.4594 51.3753 25.3703 51.2498L25.0258 51.497ZM22.3692 49.949C23.144 49.7266 23.9744 50.0179 24.4428 50.6768L24.7873 50.4297C24.2148 49.6245 23.1999 49.268 22.2528 49.5398L22.3692 49.949ZM21.3263 50.3638C21.5034 50.2366 21.7009 50.1409 21.9102 50.0809L21.7939 49.6717C21.5381 49.7453 21.2967 49.8622 21.0802 50.0175L21.3263 50.3638ZM19.2801 51.8641C19.3543 51.7896 19.4345 51.7211 19.5199 51.6599L19.2738 51.314C19.1695 51.3889 19.0714 51.4723 18.9807 51.5633L19.2801 51.8641ZM17.1246 53.8642C17.3429 53.7544 17.5423 53.6102 17.7149 53.4367L17.4156 53.1359C17.2751 53.2771 17.1129 53.3945 16.9352 53.4839L17.1246 53.8642ZM14.8278 54.0071C15.1152 54.4401 15.6788 54.5907 16.1424 54.3576L15.953 53.9773C15.6805 54.1143 15.349 54.0258 15.18 53.771L14.8278 54.0071ZM14.3249 53.7365C14.527 53.7365 14.7157 53.8382 14.8278 54.0071L15.18 53.771C14.9894 53.4839 14.6685 53.3112 14.3249 53.3112V53.7365ZM13.6534 53.7969C13.7725 53.757 13.8973 53.7365 14.0229 53.7365V53.3112C13.8518 53.3112 13.6818 53.3388 13.5195 53.3933L13.6534 53.7969ZM10.5673 54.7038C10.8175 54.7038 11.0661 54.6634 11.3036 54.5839L11.1697 54.1802C10.9755 54.2453 10.772 54.2785 10.5673 54.2785V54.7038ZM7.61125 54.1406C8.03325 54.5039 8.57075 54.7038 9.12657 54.7038V54.2785C8.6718 54.2785 8.23202 54.1151 7.88677 53.8178L7.61125 54.1406ZM5.70788 52.1193C5.84576 52.4885 6.0745 52.8173 6.37272 53.0738L6.64824 52.751C6.40426 52.5408 6.21709 52.272 6.10427 51.97L5.70788 52.1193ZM4.9228 49.5913C4.9228 49.872 4.97301 50.1502 5.07106 50.4131L5.46745 50.2634C5.38723 50.0486 5.34616 49.821 5.34616 49.5913H4.9228ZM6.79464 43.6229C5.70623 43.8415 4.9228 44.8016 4.9228 45.9169H5.34616C5.34616 45.0045 5.98717 44.2188 6.87766 44.0397L6.79464 43.6229ZM8.85664 43.4383C8.52219 43.354 8.17334 43.346 7.83525 43.4136L7.91831 43.8309C8.19489 43.7752 8.48032 43.782 8.75398 43.8509L8.85664 43.4383ZM11.1225 45.834C11.1225 44.7603 10.3953 43.8245 9.3587 43.5642L9.25604 43.9768C10.1041 44.1899 10.6991 44.9556 10.6991 45.834H11.1225ZM15.8409 50.3489C15.5111 50.5973 15.1101 50.7317 14.6978 50.7317V51.1571C15.2017 51.1571 15.6919 50.9929 16.0949 50.6892L15.8409 50.3489ZM15.1918 47.5078C15.1918 48.0986 15.6684 48.5776 16.2565 48.5776V48.1522C15.9022 48.1522 15.6151 47.8638 15.6151 47.5078H15.1918ZM15.3512 46.3823C15.2463 46.5928 15.1918 46.8251 15.1918 47.0607H15.6151C15.6151 46.891 15.6544 46.7243 15.7298 46.5724L15.3512 46.3823ZM18.5178 38.5017C18.0528 38.7354 17.759 39.2129 17.759 39.7354H18.1824C18.1824 39.3741 18.3855 39.0438 18.7072 38.8822L18.5178 38.5017ZM17.9532 35.0305C17.8229 35.5213 18.1911 36.0027 18.6966 36.0027V35.5774C18.4692 35.5774 18.3037 35.3609 18.3622 35.1401L17.9532 35.0305ZM17.9707 31.1662C18.4796 31.1662 18.8502 31.6509 18.719 32.1449L19.1281 32.2546C19.3309 31.4905 18.7577 30.7409 17.9707 30.7409V31.1662ZM16.0138 29.8351C16.3339 30.6391 17.1089 31.1662 17.9707 31.1662V30.7409C17.282 30.7409 16.6626 30.3196 16.4069 29.6771L16.0138 29.8351ZM15.8336 28.9569C15.8336 29.2379 15.887 29.5164 15.9909 29.7774L16.3839 29.6195C16.3 29.4087 16.2569 29.1838 16.2569 28.9569H15.8336ZM15.9752 25.1051C16.2719 25.5523 16.3305 26.1177 16.1318 26.6167L16.5249 26.7747C16.7753 26.1456 16.7015 25.4329 16.3274 24.8692L15.9752 25.1051ZM15.7777 24.728C15.8304 24.8603 15.8965 24.9866 15.9752 25.1051L16.3274 24.8692C16.2651 24.7752 16.2126 24.6749 16.1708 24.57L15.7777 24.728ZM15.4986 17.4603C15.2975 17.8138 15.1918 18.2139 15.1918 18.6211H15.6151C15.6151 18.2879 15.7017 17.9606 15.8661 17.6714L15.4986 17.4603ZM11.394 49.7278C11.2163 49.4305 11.1225 49.0902 11.1225 48.7431H10.6991C10.6991 49.1672 10.8138 49.5832 11.0309 49.9469L11.394 49.7278ZM34.8339 51.0622C35.1413 50.599 35.744 50.4382 36.2398 50.687L36.4291 50.3068C35.7424 49.9618 34.9075 50.1847 34.4816 50.8266L34.8339 51.0622ZM17.3185 13.2652C17.5594 13.6282 17.5594 14.1011 17.3185 14.4641L17.6708 14.7C18.0065 14.1942 18.0065 13.5351 17.6708 13.0293L17.3185 13.2652ZM13.072 50.7317C12.4028 50.7317 11.7827 50.3791 11.4384 49.8023L11.0753 50.0213C11.4962 50.7258 12.2541 51.1571 13.072 51.1571V50.7317ZM15.7219 13.0458C16.2116 12.6221 16.96 12.7249 17.3185 13.2652L17.6708 13.0293C17.1712 12.2763 16.1281 12.1329 15.4457 12.7234L15.7219 13.0458ZM16.0001 26.9475C15.8901 27.2239 15.8336 27.5188 15.8336 27.8164H16.2569C16.2569 27.5729 16.3032 27.3316 16.3932 27.1055L16.0001 26.9475ZM16.2565 48.5776C16.8563 48.5776 17.1278 49.3314 16.667 49.7172L16.938 50.0439C17.703 49.4033 17.2522 48.1522 16.2565 48.1522V48.5776ZM30.5592 53.7319C30.482 53.2274 30.8701 52.7692 31.3741 52.7692V52.3439C30.6068 52.3439 30.0247 53.0381 30.1407 53.7965L30.5592 53.7319ZM39.6222 16.294C39.2633 16.6662 38.7696 16.8763 38.2539 16.8763V17.3016C38.8842 17.3016 39.4877 17.0448 39.9263 16.5899L39.6222 16.294ZM15.1918 22.8056C15.1918 23.1032 15.2483 23.3981 15.3583 23.6745L15.7514 23.5165C15.6614 23.2904 15.6151 23.0491 15.6151 22.8056H15.1918ZM17.759 41.0918C17.759 41.3889 17.6901 41.682 17.5579 41.9478L17.9365 42.1381C18.0982 41.8132 18.1824 41.455 18.1824 41.0918H17.759ZM26.1447 53.1665C25.884 53.7774 26.6098 54.3325 27.1265 53.9173L26.862 53.5851C26.6893 53.7238 26.4467 53.5383 26.5338 53.3341L26.1447 53.1665ZM41.3109 11.7173C40.6933 11.7173 40.101 11.9638 39.6644 12.4026L39.9637 12.7034C40.321 12.3444 40.8056 12.1427 41.3109 12.1427V11.7173ZM2.01758 16.8924L2.95625 14.2988L2.55838 14.1534L1.61972 16.7471L2.01758 16.8924ZM3.2977 13.7102L13.39 1.83155L13.0679 1.55537L2.9757 13.434L3.2977 13.7102ZM15.3765 1.23795L18.9207 2.28533L19.0401 1.87724L15.4959 0.829864L15.3765 1.23795ZM20.2297 2.28682L26.1768 0.54398L26.0583 0.135621L20.1111 1.87846L20.2297 2.28682ZM28.0132 0.985126L32.0551 4.79243L32.3447 4.48212L28.3028 0.674799L28.0132 0.985126ZM32.5706 5.15987L39.1626 8.61552L39.3584 8.23842L32.7664 4.78273L32.5706 5.15987ZM40.4056 8.87495L47.1709 8.38939L47.1405 7.96512L40.3754 8.45064L40.4056 8.87495ZM49.1074 9.67469L51.7864 17.4808L52.1869 17.3421L49.5079 9.53602L49.1074 9.67469ZM51.7974 17.5065L53.8202 21.5715L54.1987 21.3813L52.1759 17.3163L51.7974 17.5065ZM54.0213 22.4276V28.472H54.4446V22.4276H54.0213ZM53.8202 21.5715C53.9523 21.8373 54.0213 22.1304 54.0213 22.4276H54.4446C54.4446 22.0643 54.3604 21.7061 54.1987 21.3813L53.8202 21.5715ZM47.1709 8.38939C48.0316 8.32762 48.8263 8.85496 49.1074 9.67469L49.5079 9.53602C49.1641 8.53414 48.1925 7.88962 47.1405 7.96512L47.1709 8.38939ZM39.1626 8.61552C39.545 8.81599 39.9753 8.90579 40.4056 8.87495L40.3754 8.45064C40.0234 8.47591 39.6713 8.40245 39.3584 8.23842L39.1626 8.61552ZM32.0551 4.79243C32.2095 4.93787 32.3829 5.06148 32.5706 5.15987L32.7664 4.78273C32.6129 4.70225 32.471 4.6011 32.3447 4.48212L32.0551 4.79243ZM26.1768 0.54398C26.8235 0.354457 27.5218 0.522192 28.0132 0.985126L28.3028 0.674799C27.7021 0.108991 26.8487 -0.0960172 26.0583 0.135621L26.1768 0.54398ZM18.9207 2.28533C19.3479 2.41158 19.8022 2.4121 20.2297 2.28682L20.1111 1.87846C19.7614 1.98096 19.3897 1.98054 19.0401 1.87724L18.9207 2.28533ZM13.39 1.83155C13.8777 1.25745 14.6557 1.02497 15.3765 1.23795L15.4959 0.829864C14.615 0.569545 13.6641 0.85369 13.0679 1.55537L13.39 1.83155ZM2.95625 14.2988C3.03411 14.0837 3.14976 13.8843 3.2977 13.7102L2.9757 13.434C2.7949 13.6468 2.65355 13.8905 2.55838 14.1534L2.95625 14.2988ZM1.95092 17.9773C1.86895 17.6164 1.89182 17.24 2.01758 16.8924L1.61972 16.7471C1.46597 17.1719 1.43818 17.6317 1.53817 18.0719L1.95092 17.9773ZM31.9108 34.3419L27.2482 30.1502L26.9659 30.4672L31.6285 34.6589L31.9108 34.3419ZM27.2482 30.1502L26.306 29.3032L26.0238 29.6203L26.9659 30.4672L27.2482 30.1502ZM26.988 30.1328L26.8835 30.2043L27.1215 30.556L27.2261 30.4846L26.988 30.1328ZM25.7958 31.7082H25.5307V32.1336H25.7958V31.7082ZM25.1145 31.7761L23.6976 32.2506L23.8315 32.6542L25.2484 32.1796L25.1145 31.7761ZM23.0142 32.6157L22.0134 33.3893L22.2715 33.7264L23.2724 32.9529L23.0142 32.6157ZM22.0134 33.3893L19.839 35.0699L20.0971 35.407L22.2715 33.7264L22.0134 33.3893ZM22.1425 33.7706H26.9782V33.3452H22.1425V33.7706ZM27.7116 33.9181L28.1096 34.0849L28.2726 33.6923L27.8745 33.5255L27.7116 33.9181ZM28.9907 35.4133V38.1899H29.414V35.4133H28.9907ZM28.7896 39.0459L28.56 39.5073L28.9387 39.6975L29.1682 39.2362L28.7896 39.0459ZM26.9493 40.2192L25.4097 39.7772L25.2933 40.1862L26.833 40.6282L26.9493 40.2192ZM25.4029 39.7754L22.8356 39.1305L22.7329 39.5432L25.3001 40.1881L25.4029 39.7754ZM22.8105 39.1258L20.2433 38.8034L20.1908 39.2255L22.758 39.5479L22.8105 39.1258ZM18.9445 36.6659L18.8691 37.3472L19.2899 37.3942L19.3652 36.7129L18.9445 36.6659ZM28.56 39.5073C28.4528 39.7228 28.2914 39.9063 28.0919 40.04L28.3268 40.3939C28.5876 40.2192 28.7985 39.9792 28.9387 39.6975L28.56 39.5073ZM28.9907 38.1899C28.9907 38.487 28.9218 38.7802 28.7896 39.0459L29.1682 39.2362C29.3299 38.9113 29.414 38.5531 29.414 38.1899H28.9907ZM28.9172 34.9581C28.9659 35.1049 28.9907 35.2586 28.9907 35.4133H29.414C29.414 35.2129 29.3819 35.0138 29.3188 34.8236L28.9172 34.9581ZM28.1096 34.0849C28.4918 34.2451 28.7862 34.5635 28.9172 34.9581L29.3188 34.8236C29.1492 34.3123 28.7677 33.8998 28.2726 33.6923L28.1096 34.0849ZM26.9782 33.7706C27.2299 33.7706 27.4792 33.8207 27.7116 33.9181L27.8745 33.5255C27.5905 33.4065 27.2859 33.3452 26.9782 33.3452V33.7706ZM23.6976 32.2506C23.4511 32.3332 23.2201 32.4566 23.0142 32.6157L23.2724 32.9529C23.4408 32.8227 23.6298 32.7217 23.8315 32.6542L23.6976 32.2506ZM25.5307 31.7082C25.3893 31.7082 25.2488 31.7311 25.1145 31.7761L25.2484 32.1796C25.3394 32.1491 25.4348 32.1336 25.5307 32.1336V31.7082ZM26.4234 31.0776C26.4234 31.4259 26.1424 31.7082 25.7958 31.7082V32.1336C26.3762 32.1336 26.8468 31.6608 26.8468 31.0776H26.4234ZM28.0919 40.04C27.7557 40.2652 27.3379 40.3308 26.9493 40.2192L26.833 40.6282C27.341 40.7741 27.8872 40.6884 28.3268 40.3939L28.0919 40.04ZM26.8835 30.2043C26.5957 30.4009 26.4234 30.7279 26.4234 31.0776H26.8468C26.8468 30.8687 26.9497 30.6735 27.1215 30.556L26.8835 30.2043ZM34.1252 24.1825V27.0844H34.5485V24.1825H34.1252ZM34.767 27.7293V27.9286H35.1903V27.7293H34.767ZM34.8442 28.257L35.0911 28.7532L35.4698 28.563L35.2228 28.0668L34.8442 28.257ZM34.767 30.7073V32.1098H35.1903V30.7073H34.767ZM34.5081 32.7378L34.268 32.979L34.5674 33.2798L34.8074 33.0386L34.5081 32.7378ZM34.0032 33.3544L33.9182 33.1836L33.5396 33.3738L33.6246 33.5447L34.0032 33.3544ZM33.9067 33.1345V32.5658H33.4834V33.1345H33.9067ZM33.9182 33.1836C33.9107 33.1684 33.9067 33.1516 33.9067 33.1345H33.4834C33.4834 33.2176 33.5026 33.2995 33.5396 33.3738L33.9182 33.1836ZM34.1252 33.3255C34.1252 33.3483 34.1184 33.3601 34.1123 33.3672C34.1048 33.3761 34.0922 33.3845 34.0756 33.3884C34.059 33.3924 34.044 33.3905 34.0333 33.386C34.0247 33.3823 34.0134 33.3748 34.0032 33.3544L33.6246 33.5447C33.8547 34.0071 34.5485 33.8426 34.5485 33.3255H34.1252ZM34.268 32.979C34.1766 33.0709 34.1252 33.1955 34.1252 33.3255H34.5485C34.5485 33.3083 34.5553 33.2919 34.5674 33.2798L34.268 32.979ZM34.767 32.1098C34.767 32.3453 34.6738 32.5713 34.5081 32.7378L34.8074 33.0386C35.0526 32.7922 35.1903 32.4581 35.1903 32.1098H34.767ZM35.0226 29.8591C34.8559 30.1103 34.767 30.4054 34.767 30.7073H35.1903C35.1903 30.4894 35.2545 30.2764 35.3748 30.0951L35.0226 29.8591ZM35.0911 28.7532C35.2674 29.1075 35.2412 29.5295 35.0226 29.8591L35.3748 30.0951C35.6778 29.6385 35.714 29.0538 35.4698 28.563L35.0911 28.7532ZM34.767 27.9286C34.767 28.0426 34.7934 28.155 34.8442 28.257L35.2228 28.0668C35.2015 28.0238 35.1903 27.9765 35.1903 27.9286H34.767ZM34.6578 27.6195C34.7181 27.6195 34.767 27.6687 34.767 27.7293H35.1903C35.1903 27.4337 34.9519 27.1942 34.6578 27.1942V27.6195ZM34.1252 27.0844C34.1252 27.38 34.3636 27.6195 34.6578 27.6195V27.1942C34.5974 27.1942 34.5485 27.145 34.5485 27.0844H34.1252ZM17.7672 42.7381L18.494 42.2513L18.2592 41.8973L17.5323 42.3842L17.7672 42.7381ZM18.9483 42.028L19.3163 41.9048L19.1824 41.5012L18.8145 41.6245L18.9483 42.028ZM19.9187 41.8066H20.5983V41.3812H19.9187V41.8066ZM21.0603 41.8637L21.7354 42.0333L21.8381 41.6206L21.163 41.451L21.0603 41.8637ZM22.3301 42.2976L22.9877 42.7381L23.2226 42.3842L22.5649 41.9437L22.3301 42.2976ZM23.0105 42.7513L23.6523 43.0737L23.8416 42.6934L23.1998 42.371L23.0105 42.7513ZM21.7354 42.0333C21.9472 42.0865 22.1484 42.1759 22.3301 42.2976L22.5649 41.9437C22.3429 41.795 22.097 41.6857 21.8381 41.6206L21.7354 42.0333ZM20.5983 41.8066C20.754 41.8066 20.9092 41.8258 21.0603 41.8637L21.163 41.451C20.9783 41.4046 20.7886 41.3812 20.5983 41.3812V41.8066ZM19.3163 41.9048C19.5105 41.8398 19.7139 41.8066 19.9187 41.8066V41.3812C19.6684 41.3812 19.4198 41.4217 19.1824 41.5012L19.3163 41.9048ZM18.494 42.2513C18.6349 42.1569 18.7877 42.0818 18.9483 42.028L18.8145 41.6245C18.6181 41.6902 18.4314 41.782 18.2592 41.8973L18.494 42.2513ZM36.6924 30.3087V34.1552H37.1158V30.3087H36.6924ZM36.8119 34.8951L36.8679 35.0638L37.2695 34.9293L37.2135 34.7606L36.8119 34.8951ZM37.4248 35.9692L37.7282 36.2741L38.0276 35.9733L37.7242 35.6684L37.4248 35.9692ZM39.0973 36.5564L40.2542 36.0915L40.097 35.6965L38.94 36.1615L39.0973 36.5564ZM38.6258 36.6476C38.7873 36.6476 38.9473 36.6167 39.0973 36.5564L38.94 36.1615C38.8401 36.2016 38.7335 36.2223 38.6258 36.2223V36.6476ZM37.7282 36.2741C37.9663 36.5133 38.2891 36.6476 38.6258 36.6476V36.2223C38.4015 36.2223 38.1863 36.1327 38.0276 35.9733L37.7282 36.2741ZM36.8679 35.0638C36.9811 35.405 37.1717 35.7149 37.4248 35.9692L37.7242 35.6684C37.5176 35.4609 37.3619 35.2078 37.2695 34.9293L36.8679 35.0638ZM36.6924 34.1552C36.6924 34.4067 36.7328 34.6565 36.8119 34.8951L37.2135 34.7606C37.1488 34.5654 37.1158 34.361 37.1158 34.1552H36.6924ZM18.5109 48.5419L23.7838 47.6073L23.7102 47.1884L18.4374 48.1233L18.5109 48.5419ZM23.7929 47.6052L29.3148 46.3725L29.223 45.9573L23.701 47.1901L23.7929 47.6052ZM29.851 46.1811L34.3055 43.9432L34.1162 43.5629L29.6617 45.8008L29.851 46.1811ZM35.1269 43.2545L37.2919 40.3541L36.9532 40.0988L34.7882 42.9993L35.1269 43.2545ZM37.7576 38.9504V35.7901H37.3342V38.9504H37.7576ZM37.2919 40.3541C37.5942 39.9491 37.7576 39.4566 37.7576 38.9504H37.3342C37.3342 39.3645 37.2005 39.7675 36.9532 40.0988L37.2919 40.3541ZM34.3055 43.9432C34.6288 43.7807 34.91 43.545 35.1269 43.2545L34.7882 42.9993C34.6108 43.2371 34.3807 43.4298 34.1162 43.5629L34.3055 43.9432ZM29.3148 46.3725C29.5007 46.3308 29.6807 46.2666 29.851 46.1811L29.6617 45.8008C29.5223 45.8705 29.375 45.9233 29.223 45.9573L29.3148 46.3725ZM17.7855 22.8359L18.7573 24.3005L19.1095 24.0645L18.1377 22.5999L17.7855 22.8359ZM18.91 24.3939L21.7982 24.7163L21.8449 24.2935L18.9568 23.9711L18.91 24.3939ZM23.4523 24.716L26.0196 24.3935L25.9671 23.9714L23.3998 24.2939L23.4523 24.716ZM26.088 24.3727L27.3716 23.7279L27.1823 23.3474L25.8987 23.9923L26.088 24.3727ZM27.3716 23.7279L31.2225 21.7933L31.0331 21.4128L27.1823 23.3474L27.3716 23.7279ZM25.1191 20.1006H21.0093V20.526H25.1191V20.1006ZM20.68 20.1242L16.6763 20.6988L16.7361 21.1199L20.7398 20.5452L20.68 20.1242ZM15.6297 21.4708L17.0523 22.1856L17.2417 21.8051L15.819 21.0904L15.6297 21.4708ZM15.9643 20.9223L15.6297 21.0904L15.819 21.4708L16.1536 21.3028L15.9643 20.9223ZM31.0492 21.8005L32.2503 22.2833L32.4075 21.8883L31.2064 21.4056L31.0492 21.8005ZM32.8899 22.707L33.5453 23.3656L33.8447 23.0648L33.1892 22.4062L32.8899 22.707ZM33.6437 23.4216L34.5716 23.6546L34.6743 23.242L33.7464 23.0089L33.6437 23.4216ZM38.3418 25.1356L38.7874 24.5759L38.4568 24.3102L38.0112 24.8698L38.3418 25.1356ZM39.2165 24.2561L40.0284 23.9297L39.8712 23.5348L39.0592 23.8611L39.2165 24.2561ZM33.6004 23.025L31.0331 24.3147L31.2225 24.6952L33.7897 23.4054L33.6004 23.025ZM30.9585 24.3773L30.4467 25.063L30.7853 25.3182L31.2971 24.6326L30.9585 24.3773ZM29.3846 25.7715L29.0829 25.8473L29.1856 26.26L29.4873 26.1841L29.3846 25.7715ZM28.6209 25.9044H27.8074V26.3298H28.6209V25.9044ZM27.4338 25.8672L26.6633 25.7124L26.5803 26.1295L27.3508 26.2844L27.4338 25.8672ZM25.6898 25.1889L25.5012 24.9994L25.2018 25.3002L25.3905 25.4897L25.6898 25.1889ZM25.5276 25.2678L26.1694 24.3005L25.8172 24.0645L25.1754 25.0318L25.5276 25.2678ZM25.2568 24.9596L24.8373 25.1704L25.0266 25.5508L25.4462 25.34L25.2568 24.9596ZM21.8215 24.7176H22.6238V24.2923H21.8215V24.7176ZM22.6238 24.7176H23.4261V24.2923H22.6238V24.7176ZM23.4865 24.9909L22.7644 24.346L22.4832 24.6639L23.2052 25.3088L23.4865 24.9909ZM20.2773 26.2269H19.7848V26.6522H20.2773V26.2269ZM19.4112 26.1897L18.0122 25.9086L17.9292 26.3257L19.3281 26.6068L19.4112 26.1897ZM18.0653 25.9269L17.3174 25.5512L17.1281 25.9316L17.876 26.3073L18.0653 25.9269ZM16.551 24.8488L15.8 23.6336L15.4403 23.858L16.1913 25.0732L16.551 24.8488ZM15.6622 23.2622L15.4045 21.6367L14.9864 21.7037L15.2441 23.3291L15.6622 23.2622ZM18.1642 26.031L16.7607 22.845L16.3736 23.0172L17.7771 26.2032L18.1642 26.031ZM16.7463 22.8571L17.531 23.3913L17.7685 23.0391L16.9838 22.505L16.7463 22.8571ZM17.5228 23.3854L18.8064 24.3527L19.0604 24.0124L17.7768 23.0451L17.5228 23.3854ZM31.338 24.5299L31.5599 22.6426L31.1394 22.5927L30.9176 24.48L31.338 24.5299ZM30.8975 22.1008L27.21 23.3359L27.3439 23.7394L31.0314 22.5044L30.8975 22.1008ZM31.3975 22.2067C31.2622 22.0832 31.071 22.0428 30.8975 22.1008L31.0314 22.5044C31.0597 22.4949 31.0909 22.5015 31.1129 22.5216L31.3975 22.2067ZM16.7607 22.845C16.7613 22.8462 16.7616 22.8476 16.7616 22.849H16.3382C16.3382 22.9069 16.3503 22.9642 16.3736 23.0172L16.7607 22.845ZM17.3174 25.5512C17.0022 25.3928 16.7369 25.1496 16.551 24.8488L16.1913 25.0732C16.4185 25.4409 16.7428 25.7381 17.1281 25.9316L17.3174 25.5512ZM24.8373 25.1704C24.3928 25.3936 23.8579 25.3226 23.4865 24.9909L23.2052 25.3088C23.706 25.756 24.4273 25.8519 25.0266 25.5508L24.8373 25.1704ZM26.6633 25.7124C26.2945 25.6383 25.9558 25.4562 25.6898 25.1889L25.3905 25.4897C25.7155 25.8163 26.1295 26.0389 26.5803 26.1295L26.6633 25.7124ZM38.7874 24.5759C38.9005 24.4338 39.0483 24.3237 39.2165 24.2561L39.0592 23.8611C38.8232 23.956 38.6156 24.1107 38.4568 24.3102L38.7874 24.5759ZM36.8099 25.0688C37.1664 25.6062 37.9402 25.6399 38.3418 25.1356L38.0112 24.8698C37.7886 25.1494 37.3598 25.1307 37.1621 24.8328L36.8099 25.0688ZM31.5599 22.6426C31.5791 22.4795 31.5186 22.3171 31.3975 22.2067L31.1129 22.5216C31.1327 22.5396 31.1426 22.5661 31.1394 22.5927L31.5599 22.6426ZM36.6638 24.9221C36.7217 24.9608 36.7713 25.0107 36.8099 25.0688L37.1621 24.8328C37.0925 24.728 37.003 24.638 36.8987 24.5681L36.6638 24.9221ZM16.7616 22.849C16.7616 22.8486 16.7616 22.8493 16.7612 22.8506C16.7609 22.8519 16.7603 22.8533 16.7595 22.8544C16.7582 22.8566 16.7569 22.8574 16.7564 22.8576C16.7559 22.8579 16.7545 22.8585 16.7519 22.8585C16.7506 22.8584 16.7492 22.8582 16.7479 22.8577C16.7465 22.8573 16.746 22.8569 16.7463 22.8571L16.9838 22.505C16.7091 22.318 16.3382 22.5157 16.3382 22.849H16.7616ZM34.5716 23.6546C34.7834 23.7078 34.9846 23.7973 35.1663 23.919L35.4012 23.565C35.1791 23.4163 34.9332 23.307 34.6743 23.242L34.5716 23.6546ZM32.2503 22.2833C32.4898 22.3795 32.7074 22.5237 32.8899 22.707L33.1892 22.4062C32.9663 22.1822 32.7003 22.006 32.4075 21.8883L32.2503 22.2833ZM20.7394 26.1697C20.5883 26.2077 20.4331 26.2269 20.2773 26.2269V26.6522C20.4677 26.6522 20.6574 26.6287 20.8421 26.5824L20.7394 26.1697ZM25.6242 20.1564C25.4584 20.1193 25.289 20.1006 25.1191 20.1006V20.526C25.2582 20.526 25.3967 20.5413 25.5324 20.5716L25.6242 20.1564ZM30.4467 25.063C30.1841 25.4146 29.8091 25.6649 29.3846 25.7715L29.4873 26.1841C30.0061 26.0538 30.4645 25.7481 30.7853 25.3182L30.4467 25.063ZM29.0829 25.8473C28.9318 25.8852 28.7766 25.9044 28.6209 25.9044V26.3298C28.8113 26.3298 29.0009 26.3063 29.1856 26.26L29.0829 25.8473ZM16.6763 20.6988C16.4285 20.7344 16.1881 20.8099 15.9643 20.9223L16.1536 21.3028C16.3367 21.2108 16.5334 21.149 16.7361 21.1199L16.6763 20.6988ZM27.8074 25.9044C27.682 25.9044 27.5568 25.892 27.4338 25.8672L27.3508 26.2844C27.5011 26.3146 27.6541 26.3298 27.8074 26.3298V25.9044ZM18.1377 22.5999C17.9129 22.2611 17.6041 21.9872 17.2417 21.8051L17.0523 22.1856C17.3489 22.3345 17.6016 22.5587 17.7855 22.8359L18.1377 22.5999ZM19.7848 26.2269C19.6594 26.2269 19.5342 26.2144 19.4112 26.1897L19.3281 26.6068C19.4785 26.637 19.6315 26.6522 19.7848 26.6522V26.2269ZM21.0093 20.1006C20.8991 20.1006 20.789 20.1085 20.68 20.1242L20.7398 20.5452C20.8291 20.5324 20.9191 20.526 21.0093 20.526V20.1006ZM31.1737 21.3954L25.6242 20.1564L25.5324 20.5716L31.0819 21.8107L31.1737 21.3954ZM35.1663 23.919L36.6638 24.9221L36.8987 24.5681L35.4012 23.565L35.1663 23.919ZM22.3888 25.7554L20.7394 26.1697L20.8421 26.5824L22.4915 26.168L22.3888 25.7554ZM2.77892 21.9255C2.77892 21.8992 2.77598 21.8694 2.77275 21.8427L2.35249 21.8941C2.35378 21.9047 2.35461 21.9129 2.35509 21.9188C2.35561 21.9253 2.35556 21.927 2.35556 21.9255H2.77892ZM2.77275 21.8427C2.72077 21.4137 2.26728 19.3703 1.95092 17.9773L1.53817 18.0719C1.85846 19.4822 2.30396 21.4935 2.35249 21.8941L2.77275 21.8427ZM2.6627 22.0558L3.52588 21.5905L3.32573 21.2156L2.46254 21.681L2.6627 22.0558ZM3.39101 21.6128L4.66108 21.8255L4.73068 21.4059L3.46061 21.1932L3.39101 21.6128ZM52.8968 29.8482L53.5319 29.2102L53.2321 28.9094L52.5971 29.5474L52.8968 29.8482ZM53.4879 29.2441L54.1153 28.8808L53.904 28.5123L53.2762 28.8755L53.4879 29.2441ZM40.9338 23.2775L40.9816 23.2212L40.6598 22.9448L40.6119 23.0011L40.9338 23.2775ZM15.1918 18.6211V21.2762H15.6151V18.6211H15.1918ZM15.4938 21.4685C15.5344 21.4492 15.5819 21.4469 15.6297 21.4708L15.819 21.0904C15.6481 21.0045 15.4639 21.0123 15.3131 21.0838L15.4938 21.4685ZM15.3131 21.0838C15.0969 21.1863 14.9422 21.425 14.9864 21.7037L15.4045 21.6367C15.3927 21.5624 15.4313 21.4981 15.4938 21.4685L15.3131 21.0838ZM15.1918 21.2762V22.8056H15.6151V21.2762H15.1918ZM16.2564 48.5776H18.1062L18.1062 48.1522H16.2565L16.2564 48.5776ZM37.3962 35.9405L37.4248 35.9692L37.7242 35.6684L37.6956 35.6397L37.3962 35.9405ZM37.3962 35.9405L37.7282 36.2741L38.0276 35.9733L37.6956 35.6397L37.3962 35.9405ZM15.4074 23.7978L15.7777 24.728L16.1708 24.57L15.8005 23.6398L15.4074 23.7978ZM18.6966 36.0027C18.8688 36.0027 19.012 36.1294 19.0383 36.295L19.4563 36.2279C19.3978 35.8591 19.0801 35.5774 18.6966 35.5774V36.0027ZM19.4485 36.3277C19.5668 35.9651 19.7914 35.6433 20.0971 35.407L19.839 35.0699C19.4653 35.3586 19.1908 35.752 19.0462 36.1951L19.4485 36.3277ZM20.2684 38.8081C19.8443 38.7016 19.5164 38.3948 19.3681 38.0073L18.973 38.1599C19.169 38.6725 19.6033 39.0795 20.1657 39.2208L20.2684 38.8081ZM18.9742 38.0042C18.8891 38.2169 18.729 38.3957 18.5178 38.5017L18.7072 38.8822C19.0125 38.7288 19.244 38.4702 19.367 38.163L18.9742 38.0042ZM19.0426 37.6486C19.0426 37.7727 19.0187 37.8931 18.9742 38.0042L19.367 38.163C19.4313 38.0021 19.466 37.8279 19.466 37.6486H19.0426ZM19.3681 38.0073C19.2956 37.8176 19.2662 37.6086 19.2899 37.3942L18.8691 37.3472C18.8378 37.6308 18.8767 37.9082 18.973 38.1599L19.3681 38.0073ZM19.0383 36.295C19.0411 36.3129 19.0426 36.3314 19.0426 36.3504H19.466C19.466 36.3089 19.4627 36.268 19.4563 36.2279L19.0383 36.295ZM19.0462 36.1951C18.9966 36.347 18.9623 36.5046 18.9445 36.6659L19.3652 36.7129C19.3798 36.5809 19.4079 36.4519 19.4485 36.3277L19.0462 36.1951ZM15.7866 23.6113C15.7239 23.5038 15.6817 23.3854 15.6622 23.2622L15.2441 23.3291C15.2719 23.5046 15.332 23.6731 15.4213 23.8263L15.7866 23.6113ZM15.3583 23.6745L15.4074 23.7978L15.8005 23.6398L15.7514 23.5165L15.3583 23.6745ZM25.7239 28.3237L25.1378 25.8713L24.7261 25.9706L25.3123 28.423L25.7239 28.3237ZM25.1177 26.023L25.5372 25.2518L25.1658 25.0478L24.7462 25.819L25.1177 26.023ZM15.4213 23.8263C15.4244 23.8317 15.4276 23.8371 15.4308 23.8425L15.7934 23.6227C15.7911 23.619 15.7888 23.6152 15.7866 23.6113L15.4213 23.8263ZM15.4309 23.8425C15.434 23.8477 15.4371 23.8528 15.4403 23.858L15.8 23.6337C15.7978 23.63 15.7955 23.6263 15.7933 23.6227L15.4309 23.8425ZM22.4915 26.168C22.772 26.0976 23.0221 25.9494 23.2169 25.746L22.9118 25.4511C22.7713 25.5978 22.591 25.7046 22.3888 25.7554L22.4915 26.168ZM22.8853 25.4851L18.7445 32.0864L19.1027 32.3132L23.2434 25.7119L22.8853 25.4851ZM23.2434 25.7119L23.5249 25.2632L23.1668 25.0364L22.8853 25.4851L23.2434 25.7119ZM23.1476 25.0751C23.0945 25.2174 23.0137 25.3447 22.9118 25.4511L23.2169 25.746C23.3582 25.5984 23.4704 25.4217 23.5441 25.2245L23.1476 25.0751ZM15.8007 23.6348L15.7926 23.6216L15.4316 23.8437L15.4396 23.8568L15.8007 23.6348ZM15.7941 23.624L15.7859 23.6101L15.422 23.8275L15.4302 23.8413L15.7941 23.624ZM40.0284 23.9297C40.3783 23.7891 40.689 23.5653 40.9338 23.2775L40.6119 23.0011C40.4116 23.2366 40.1575 23.4197 39.8712 23.5348L40.0284 23.9297ZM18.4374 48.1233C18.328 48.1425 18.2172 48.1522 18.1062 48.1522L18.1062 48.5776C18.2419 48.5776 18.3773 48.5657 18.5109 48.5419L18.4374 48.1233ZM5.40259 21.4128C5.23719 21.5559 4.99617 21.5678 4.8176 21.4417L4.57417 21.7897C4.91137 22.0279 5.36652 22.0054 5.67883 21.7352L5.40259 21.4128ZM26.306 29.3032C26.0174 29.0438 25.8144 28.7021 25.7239 28.3237L25.3123 28.423C25.4228 28.8855 25.671 29.3031 26.0238 29.6203L26.306 29.3032ZM54.0213 28.472C54.0213 28.4786 54.0162 28.4839 54.0094 28.4839V28.9093C54.2499 28.9093 54.4446 28.7135 54.4446 28.472H54.0213ZM40.2542 36.0915C40.239 36.0976 40.2224 36.0863 40.2224 36.0698H40.6457C40.6457 35.7854 40.3598 35.5909 40.097 35.6965L40.2542 36.0915ZM51.8778 29.616C52.065 29.9783 52.5226 30.0992 52.8626 29.8759L52.6314 29.5198C52.501 29.6053 52.3253 29.5591 52.2538 29.4202L51.8778 29.616Z" fill="white"/>
<path d="M3.52995 28.1614C5.36259 28.1614 6.84823 26.6687 6.84823 24.8273C6.84823 22.986 5.36259 21.4933 3.52995 21.4933C1.69732 21.4933 0.211674 22.986 0.211674 24.8273C0.211674 26.6687 1.69732 28.1614 3.52995 28.1614Z" stroke="white"/>
<path d="M54.8748 33.9652C56.3529 33.9652 57.5512 32.7612 57.5512 31.276C57.5512 29.7908 56.3529 28.5868 54.8748 28.5868C53.3966 28.5868 52.1983 29.7908 52.1983 31.276C52.1983 32.7612 53.3966 33.9652 54.8748 33.9652Z" stroke="white"/>
<path d="M31.1278 21.7127C32.2515 21.7127 33.1625 20.7975 33.1625 19.6684C33.1625 18.5393 32.2515 17.6241 31.1278 17.6241C30.0041 17.6241 29.0931 18.5393 29.0931 19.6684C29.0931 20.7975 30.0041 21.7127 31.1278 21.7127Z" stroke="white"/>
</g>
<defs>
<clipPath id="clip0_2_13">
<rect width="58" height="57" fill="white"/>
</clipPath>
</defs>
</svg>
